<svg width="1440" height="821" viewBox="0 0 1440 821" fill="none" xmlns="http://www.w3.org/2000/svg">
<g clip-path="url(#clip0_209_179)">
<path d="M1194.67 570.826C1185.98 605.128 1161.67 633.789 1125.07 656.233C1088.46 678.679 1039.59 694.887 981.849 704.283C866.37 723.073 715.521 714.595 556.685 674.372C397.849 634.15 261.146 569.81 168.528 498.322C122.218 462.578 86.9493 425.062 65.4388 387.899C43.9299 350.739 36.1925 313.964 44.8791 279.661C53.5657 245.359 77.8737 216.698 114.476 194.254C151.082 171.808 199.955 155.6 257.696 146.204C373.175 127.414 524.024 135.892 682.86 176.115C841.696 216.337 978.399 280.677 1071.02 352.165C1117.33 387.909 1152.6 425.425 1174.11 462.588C1195.61 499.748 1203.35 536.523 1194.67 570.826Z" stroke="url(#paint0_linear_209_179)"/>
<path d="M1455.27 636.821C1442.63 686.733 1407.27 728.418 1354.05 761.049C1300.83 793.681 1229.79 817.238 1145.88 830.892C978.06 858.199 758.855 845.877 528.054 787.431C297.254 728.984 98.6035 635.491 -35.9941 531.602C-103.294 479.656 -154.56 425.127 -185.833 371.099C-217.104 317.073 -228.368 263.58 -215.728 213.667C-203.088 163.755 -167.722 122.07 -114.507 89.4391C-61.2891 56.8069 9.75156 33.2496 93.663 19.5959C261.484 -7.71131 480.689 4.61065 711.49 63.0571C942.29 121.504 1140.94 214.997 1275.54 318.886C1342.84 370.832 1394.1 425.361 1425.38 479.389C1456.65 533.414 1467.91 586.908 1455.27 636.821Z" stroke="url(#paint1_linear_209_179)"/>
<path d="M1772.38 717.123C1754.93 786.03 1706.11 843.564 1632.68 888.589C1559.25 933.617 1461.23 966.116 1345.48 984.951C1113.97 1022.62 811.585 1005.62 493.217 925.001C174.849 844.379 -99.1792 715.413 -284.858 572.096C-377.698 500.437 -448.431 425.205 -491.582 350.655C-534.732 276.107 -550.287 202.272 -532.837 133.365C-515.388 64.4573 -466.566 6.92394 -393.136 -38.1017C-319.704 -83.129 -221.69 -115.628 -105.933 -134.464C125.577 -172.134 427.959 -155.135 746.327 -74.5132C1064.7 6.10825 1338.72 135.075 1524.4 278.392C1617.24 350.051 1687.97 425.283 1731.13 499.833C1774.28 574.38 1789.83 648.216 1772.38 717.123Z" stroke="url(#paint2_linear_209_179)"/>
</g>
<defs>
<linearGradient id="paint0_linear_209_179" x1="84.6962" y1="259.795" x2="1080.76" y2="673.025" gradientUnits="userSpaceOnUse">
<stop stop-color="#484848"/>
<stop offset="0.491388" stop-color="#484848" stop-opacity="0.36"/>
<stop offset="1" stop-color="#484848"/>
</linearGradient>
<linearGradient id="paint1_linear_209_179" x1="-157.657" y1="184.859" x2="1289.55" y2="785.253" gradientUnits="userSpaceOnUse">
<stop stop-color="#484848"/>
<stop offset="0.491388" stop-color="#484848" stop-opacity="0.36"/>
<stop offset="1" stop-color="#484848"/>
</linearGradient>
<linearGradient id="paint2_linear_209_179" x1="-452.555" y1="93.6755" x2="1543.61" y2="921.813" gradientUnits="userSpaceOnUse">
<stop stop-color="#484848"/>
<stop offset="0.491388" stop-color="#484848" stop-opacity="0.36"/>
<stop offset="1" stop-color="#484848"/>
</linearGradient>
<clipPath id="clip0_209_179">
<rect width="1440" height="821" fill="white"/>
</clipPath>
</defs>
</svg>
